<svg width="40" height="40" viewBox="0 0 40 40" fill="none" xmlns="http://www.w3.org/2000/svg">
<path d="M12.0111 40C10.9101 40 9.96721 39.608 9.18248 38.824C8.39776 38.04 8.00606 37.0987 8.0074 36C8.0074 34.9 8.39976 33.958 9.18449 33.174C9.96921 32.39 10.9114 31.9987 12.0111 32C13.1121 32 14.055 32.392 14.8397 33.176C15.6244 33.96 16.0161 34.9013 16.0148 36C16.0148 37.1 15.6224 38.042 14.8377 38.826C14.053 39.61 13.1108 40.0013 12.0111 40ZM32.0296 40C30.9286 40 29.9857 39.608 29.201 38.824C28.4163 38.04 28.0246 37.0987 28.0259 36C28.0259 34.9 28.4183 33.958 29.203 33.174C29.9877 32.39 30.9299 31.9987 32.0296 32C33.1306 32 34.0735 32.392 34.8582 33.176C35.6429 33.96 36.0346 34.9013 36.0333 36C36.0333 37.1 35.6409 38.042 34.8562 38.826C34.0715 39.61 33.1293 40.0013 32.0296 40ZM10.3095 8L15.114 18H29.1269L34.632 8H10.3095ZM8.40777 4H37.9351C38.7024 4 39.2863 4.342 39.6867 5.026C40.087 5.71 40.1037 6.40133 39.7367 7.1L32.6301 19.9C32.2631 20.5667 31.7707 21.0833 31.1528 21.45C30.5349 21.8167 29.8596 22 29.1269 22H14.2131L12.0111 26H36.0333V30H12.0111C10.5097 30 9.37533 29.3413 8.60795 28.024C7.84058 26.7067 7.80721 25.3987 8.50786 24.1L11.2104 19.2L4.0037 4H0V0H6.50601L8.40777 4Z" fill="white"/>
</svg>
